<svg xmlns="http://www.w3.org/2000/svg" xmlns:xlink="http://www.w3.org/1999/xlink" aria-hidden="true" role="img" class="iconify iconify--logos" width="31.88" height="32" preserveAspectRatio="xMidYMid meet" viewBox="0 0 256 257"><defs><clipPath id="a"><path d="M255.153 37.938l-13.972-24.214A31.98 31.98 0 0 0 213.312 0h-171.49a31.98 31.98 0 0 0-27.868 16.237L-.522 40.452a31.996 31.996 0 0 0 2.019 31.955l1.202 1.748v148.833a31.98 31.98 0 0 0 16.237 27.868l24.214 13.972a31.994 31.994 0 0 0 31.955-2.019l1.748-1.202V220.13a47.975 47.975 0 0 1 20.894-39.325a47.795 47.795 0 0 1 55.677 0A47.975 47.975 0 0 1 135.24 220.13v13.486l1.748 1.202a31.993 31.993 0 0 0 31.955 2.019l24.214-13.972a31.98 31.98 0 0 0 16.237-27.868V72.39l1.202-1.748a31.996 31.996 0 0 0 2.019-31.955" fill-rule="evenodd"></path></clipPath></defs><g clip-path="url(#a)"><path d="M197.594 133.108a11.987 11.987 0 0 0-11.981 11.981c0 6.612 5.37 11.981 11.981 11.981h6.929l-17.03 22.709l17.03 22.708h-6.929a11.981 11.981 0 1 0 0 23.962h23.962a11.981 11.981 0 1 0 0-23.962h-6.928l17.03-22.708l-17.03-22.709h6.928a11.987 11.987 0 0 0 11.982-11.981a11.981 11.981 0 0 0-11.982-11.981h-23.962Z" fill="#9febf9"></path><path d="M127.964 32.024c-2.172 0-4.365.045-6.58.136c-.72.028-1.085.516-.985 1.198c.043.248.072.496.072.748c0 5.045-.093 10.092-.056 15.135c.009 2.296.391 4.533 1.292 6.661c.968 2.249 2.448 4.279 4.396 5.841c2.093 1.637 4.586 2.586 7.244 2.916c3.392.417 6.823.305 10.19-.166c.745-.093 1.12-.891.803-1.567c-1.113-2.384-1.489-4.968-1.548-7.575c-.093-3.522-.066-7.046-.041-10.566c.013-5.486.024-10.97-.05-16.447c-.015-.57-.482-1.065-1.053-1.076c-2.26-.044-4.528-.062-6.795-.041l.7 1.053ZM35.159 56.012a67.944 67.944 0  0 0-5.568 1.344a3.098 3.098 0  1 1-1.597-5.99c.335-.089.667-.18.996-.272a3.096 3.096 0  0 1 2.624 5.635c1.872-.451 3.765-.823 5.674-1.116a3.096 3.096 0 0 0 1.07-6.022c.756-.215 1.527-.389 2.305-.52a3.098 3.098 0 0 1 1.392 6.078c-1.936.443-3.843.969-5.704 1.578Zm12.533-3.72a59.51 59.51 0 0 0-4.214 2.142a3.096 3.096 0 0 1-3.184-5.328c.428-.253.86-.493 1.3-.718a3.098 3.098 0 0 1 3.378 5.196c.656-.37 1.32-.713 1.992-1.032a3.096 3.096 0 0 1 2.868 5.482c-.732.378-1.453.78-2.15 1.204a3.098 3.098 0 0 1-3.676-4.976c.715-.525 1.453-1.01 2.21-1.46a3.096 3.096 0 0 1 3.264 5.224c-.812.495-1.603 1.026-2.372 1.59a3.098 3.098 0 0 1-3.98.452c.814-.609 1.655-1.182 2.52-1.716a3.096 3.096 0 0 1 3.41 5.156c-.94.618-1.857 1.28-2.743 1.98a3.098 3.098 0 0 1-4.19-.458c.912-.802 1.853-1.57 2.826-2.302a3.096 3.096 0 0 1 4.008 4.716c-1.016.863-1.992 1.774-2.92 2.73a3.098 3.098 0 0 1-4.636-4.098ZM235.2 56.03a43.07 43.07 0 0 0-3.367.82a3.096 3.096 0 0 1-1.54-5.982a49.298 49.298 0 0 1 3.845-.906a3.096 3.096 0 1 1 1.446 6.029c-1.077.258-2.146.562-3.202.905a3.096 3.096 0 0 1-2.26-5.84c1.166-.45 2.354-.832 3.56-1.14a3.098 3.098 0 0 1 1.693 6.006c-.774.218-1.533.48-2.274.786a3.096 3.096 0 0 1-2.684-5.608c.812-.388 1.643-.72 2.492-.994a3.096 3.096 0 0 1 2.121 5.813c-.662.241-1.313.518-1.944.828a3.096 3.096 0 0 1-3.396-5.232c.72-.506 1.473-.937 2.256-1.284a3.098 3.098 0 0 1 2.838 5.52Z" fill="#66c6f9"></path><path d="M127.964 135.996c-2.172 0-4.365.045-6.58.136c-.72.028-1.085.516-.985 1.198c.043.248.072.496.072.748c0 5.045-.093 10.092-.056 15.135c.009 2.296.391 4.533 1.292 6.661c.968 2.249 2.448 4.279 4.396 5.841c2.093 1.637 4.586 2.586 7.244 2.916c3.392.417 6.823.305 10.19-.166c.745-.093 1.12-.891.803-1.567c-1.113-2.384-1.489-4.968-1.548-7.575c-.093-3.522-.066-7.046-.041-10.566c.013-5.486.024-10.97-.05-16.447c-.015-.57-.482-1.065-1.053-1.076c-2.26-.044-4.528-.062-6.795-.041l.7 1.053ZM35.159 159.984a67.944 67.944 0 0 0-5.568 1.344a3.098 3.098 0 1 1-1.597-5.99c.335-.089.667-.18.996-.272a3.096 3.096 0 0 1 2.624 5.635c1.872-.451 3.765-.823 5.674-1.116a3.096 3.096 0 0 0 1.07-6.022c.756-.215 1.527-.389 2.305-.52a3.098 3.098 0 0 1 1.392 6.078c-1.936.443-3.843.969-5.704 1.578Zm12.533-3.72a59.51 59.51 0 0 0-4.214 2.142a3.096 3.096 0 0 1-3.184-5.328c.428-.253.86-.493 1.3-.718a3.098 3.098 0 0 1 3.378 5.196c.656-.37 1.32-.713 1.992-1.032a3.096 3.096 0 0 1 2.868 5.482c-.732.378-1.453.78-2.15 1.204a3.098 3.098 0 0 1-3.676-4.976c.715-.525 1.453-1.01 2.21-1.46a3.096 3.096 0 0 1 3.264 5.224c-.812.495-1.603 1.026-2.372 1.59a3.098 3.098 0 0 1-3.98.452c.814-.609 1.655-1.182 2.52-1.716a3.096 3.096 0 0 1 3.41 5.156c-.94.618-1.857 1.28-2.743 1.98a3.098 3.098 0 0 1-4.19-.458c.912-.802 1.853-1.57 2.826-2.302a3.096 3.096 0 0 1 4.008 4.716c-1.016.863-1.992 1.774-2.92 2.73a3.098 3.098 0 0 1-4.636-4.098ZM235.2 159.995a43.07 43.07 0 0 0-3.367.82a3.096 3.096 0 0 1-1.54-5.982a49.298 49.298 0 0 1 3.845-.906a3.096 3.096 0 1 1 1.446 6.029c-1.077.258-2.146.562-3.202.905a3.096 3.096 0 0 1-2.26-5.84c1.166-.45 2.354-.832 3.56-1.14a3.098 3.098 0 0 1 1.693 6.006c-.774.218-1.533.48-2.274.786a3.096 3.096 0 0 1-2.684-5.608c.812-.388 1.643-.72 2.492-.994a3.096 3.096 0 0 1 2.121 5.813c-.662.241-1.313.518-1.944.828a3.096 3.096 0 0 1-3.396-5.232c.72-.506 1.473-.937 2.256-1.284a3.098 3.098 0 0 1 2.838 5.52Z" fill="#33b5f9"></path><path d="M127.964 64.012c-2.172 0-4.365.045-6.58.136c-.72.028-1.085.516-.985 1.198c.043.248.072.496.072.748c0 5.045-.093 10.092-.056 15.135c.009 2.296.391 4.533 1.292 6.661c.968 2.249 2.448 4.279 4.396 5.841c2.093 1.637 4.586 2.586 7.244 2.916c3.392.417 6.823.305 10.19-.166c.745-.093 1.12-.891.803-1.567c-1.113-2.384-1.489-4.968-1.548-7.575c-.093-3.522-.066-7.046-.041-10.566c.013-5.486.024-10.97-.05-16.447c-.015-.57-.482-1.065-1.053-1.076c-2.26-.044-4.528-.062-6.795-.041l.7 1.053ZM35.159 88.02a67.944 67.944 0 0 0-5.568 1.344a3.098 3.098 0 1 1-1.597-5.99c.335-.089.667-.18.996-.272a3.096 3.096 0 0 1 2.624 5.635c1.872-.451 3.765-.823 5.674-1.116a3.096 3.096 0 0 0 1.07-6.022c.756-.215 1.527-.389 2.305-.52a3.098 3.098 0 0 1 1.392 6.078c-1.936.443-3.843.969-5.704 1.578Zm12.533-3.72a59.51 59.51 0 0 0-4.214 2.142a3.096 3.096 0 0 1-3.184-5.328c.428-.253.86-.493 1.3-.718a3.098 3.098 0 0 1 3.378 5.196c.656-.37 1.32-.713 1.992-1.032a3.096 3.096 0 0 1 2.868 5.482c-.732.378-1.453.78-2.15 1.204a3.098 3.098 0 0 1-3.676-4.976c.715-.525 1.453-1.01 2.21-1.46a3.096 3.096 0 0 1 3.264 5.224c-.812.495-1.603 1.026-2.372 1.59a3.098 3.098 0 0 1-3.98.452c.814-.609 1.655-1.182 2.52-1.716a3.096 3.096 0 0 1 3.41 5.156c-.94.618-1.857 1.28-2.743 1.98a3.098 3.098 0 0 1-4.19-.458c.912-.802 1.853-1.57 2.826-2.302a3.096 3.096 0 0 1 4.008 4.716c-1.016.863-1.992 1.774-2.92 2.73a3.098 3.098 0 0 1-4.636-4.098ZM235.2 88.02a43.07 43.07 0 0 0-3.367.82a3.096 3.096 0 0 1-1.54-5.982a49.298 49.298 0 0 1 3.845-.906a3.096 3.096 0 1 1 1.446 6.029c-1.077.258-2.146.562-3.202.905a3.096 3.096 0 0 1-2.26-5.84c1.166-.45 2.354-.832 3.56-1.14a3.098 3.098 0 0 1 1.693 6.006c-.774.218-1.533.48-2.274.786a3.096 3.096 0 0 1-2.684-5.608c.812-.388 1.643-.72 2.492-.994a3.096 3.096 0 0 1 2.121 5.813c-.662.241-1.313.518-1.944.828a3.096 3.096 0 0 1-3.396-5.232c.72-.506 1.473-.937 2.256-1.284a3.098 3.098 0 0 1 2.838 5.52Z" fill="#9febf9"></path><path d="M127.964 96.014c-2.172 0-4.365.045-6.58.136c-.72.028-1.085.516-.985 1.198c.043.248.072.496.072.748c0 5.045-.093 10.092-.056 15.135c.009 2.296.391 4.533 1.292 6.661c.968 2.249 2.448 4.279 4.396 5.841c2.093 1.637 4.586 2.586 7.244 2.916c3.392.417 6.823.305 10.19-.166c.745-.093 1.12-.891.803-1.567c-1.113-2.384-1.489-4.968-1.548-7.575c-.093-3.522-.066-7.046-.041-10.566c.013-5.486.024-10.97-.05-16.447c-.015-.57-.482-1.065-1.053-1.076c-2.26-.044-4.528-.062-6.795-.041l.7 1.053ZM35.159 120.016a67.944 67.944 0 0 0-5.568 1.344a3.098 3.098 0 1 1-1.597-5.99c.335-.089.667-.18.996-.272a3.096 3.096 0 0 1 2.624 5.635c1.872-.451 3.765-.823 5.674-1.116a3.096 3.096 0 0 0 1.07-6.022c.756-.215 1.527-.389 2.305-.52a3.098 3.098 0 0 1 1.392 6.078c-1.936.443-3.843.969-5.704 1.578Zm12.533-3.72a59.51 59.51 0 0 0-4.214 2.142a3.096 3.096 0 0 1-3.184-5.328c.428-.253.86-.493 1.3-.718a3.098 3.098 0 0 1 3.378 5.196c.656-.37 1.32-.713 1.992-1.032a3.096 3.096 0 0 1 2.868 5.482c-.732.378-1.453.78-2.15 1.204a3.098 3.098 0 0 1-3.676-4.976c.715-.525 1.453-1.01 2.21-1.46a3.096 3.096 0 0 1 3.264 5.224c-.812.495-1.603 1.026-2.372 1.59a3.098 3.098 0 0 1-3.98.452c.814-.609 1.655-1.182 2.52-1.716a3.096 3.096 0 0 1 3.41 5.156c-.94.618-1.857 1.28-2.743 1.98a3.098 3.098 0 0 1-4.19-.458c.912-.802 1.853-1.57 2.826-2.302a3.096 3.096 0 0 1 4.008 4.716c-1.016.863-1.992 1.774-2.92 2.73a3.098 3.098 0 0 1-4.636-4.098ZM235.2 120.016a43.07 43.07 0 0 0-3.367.82a3.096 3.096 0 0 1-1.54-5.982a49.298 49.298 0 0 1 3.845-.906a3.096 3.096 0 1 1 1.446 6.029c-1.077.258-2.146.562-3.202.905a3.096 3.096 0 0 1-2.26-5.84c1.166-.45 2.354-.832 3.56-1.14a3.098 3.098 0 0 1 1.693 6.006c-.774.218-1.533.48-2.274.786a3.096 3.096 0 0 1-2.684-5.608c.812-.388 1.643-.72 2.492-.994a3.096 3.096 0 0 1 2.121 5.813c-.662.241-1.313.518-1.944.828a3.096 3.096 0 0 1-3.396-5.232c.72-.506 1.473-.937 2.256-1.284a3.098 3.098 0 0 1 2.838 5.52Z" fill="#66c6f9"></path><path d="M255.153 37.938l-13.972-24.214A31.98 31.98 0 0 0 213.312 0h-171.49a31.98 31.98 0 0 0-27.868 16.237L-.522 40.452a31.996 31.996 0 0 0 2.019 31.955l1.202 1.748v148.833a31.98 31.98 0 0 0 16.237 27.868l24.214 13.972a31.994 31.994 0 0 0 31.955-2.019l1.748-1.202V220.13a47.975 47.975 0 0 1 20.894-39.325a47.795 47.795 0 0 1 55.677 0A47.975 47.975 0 0 1 135.24 220.13v13.486l1.748 1.202a31.993 31.993 0 0 0 31.955 2.019l24.214-13.972a31.98 31.98 0 0 0 16.237-27.868V72.39l1.202-1.748a31.996 31.996 0 0 0 2.019-31.955M127.964 224.06a79.91 79.91 0 0 1-25.432-4.162a80.288 80.288 0 0 1-22.978-11.505a80.9 80.9 0 0 1-19.915-16.905a80.395 80.395 0 0 1-16.806-23.232a79.943 79.943 0 0 1-4.831-14.297a80.163 80.163 0 0 1 0-49.014a79.943 79.943 0 0 1 4.831-14.297a80.395 80.395 0 0 1 16.806-23.232a80.89 80.89 0 0 1 19.915-16.905a80.288 80.288 0 0 1 22.978-11.505a79.91 79.91 0 0 1 25.432-4.162c4.417 0 8.811.441 13.132 1.31a80.101 80.101 0 0 1 44.134 25.753a80.89 80.89 0 0 1 11.505 22.978a80.163 80.163 0 0 1 0 49.014a80.288 80.288 0 0 1-11.505 22.978a80.101 80.101 0 0 1-44.134 25.753a80.09 80.09 0 0 1-13.132 1.31Z" fill="#0d91e9"></path></g></svg>
